<?xml version="1.0" encoding="UTF-8"?>
<svg id="Layer_2" data-name="Layer 2" xmlns="http://www.w3.org/2000/svg" viewBox="0 0 340.9 248.6">
  <defs>
    <style>
      .cls-1 {
        fill: #fff;
      }
    </style>
  </defs>
  <g id="Layer_1-2" data-name="Layer 1">
    <g id="g2787">
      <g id="g2785">
        <path id="path2774" class="cls-1" d="M43.7,248.3l-5.5-21.9h3.6l4.2,17.2h.6l4.5-17.2h4.1l4.5,17.2h.6l4.2-17.2h3.6l-5.5,21.9h-5l-4.2-16.4h-.6l-4.2,16.4h-4.9Z"/>
        <path id="path2775" class="cls-1" d="M72.2,248.3v-21.9h14.4v3.1h-11.1v6.3h10.5v3.1h-10.5v6.3h11.1v3.1h-14.4Z"/>
        <path id="path2776" class="cls-1" d="M92,248.3v-21.9h3.3v18.8h10.6v3.1h-13.9Z"/>
        <path id="path2777" class="cls-1" d="M110.2,248.3v-21.9h3.3v18.8h10.6v3.1h-13.9Z"/>
        <path id="path2778" class="cls-1" d="M128.4,248.3v-21.9h4.8l8.9,17h.6v-17h3.3v21.9h-4.8l-8.9-17h-.6v17h-3.3Z"/>
        <path id="path2779" class="cls-1" d="M152.1,248.3v-21.9h14.4v3.1h-11.1v6.3h10.5v3.1h-10.5v6.3h11.1v3.1h-14.4Z"/>
        <path id="path2780" class="cls-1" d="M170.7,241.5h3.3c0,1.1.5,2,1.5,2.8s2.3,1.2,3.8,1.2c1.7,0,3-.3,3.8-.9s1.2-1.4,1.2-2.4c0-1.6-1.3-2.6-3.8-3.1l-4.2-.8c-1.7-.3-3-1-3.9-2s-1.3-2.3-1.3-3.8c0-1.8.7-3.4,2.1-4.6s3.3-1.8,5.7-1.8c2.6,0,4.7.7,6.1,2s2.2,3,2.2,5h-3.3c0-1.1-.5-2-1.4-2.8s-2.1-1.2-3.6-1.2c-1.4,0-2.5.3-3.3,1-.8.6-1.2,1.4-1.2,2.3,0,1.5,1.1,2.5,3.3,3l3.4.6c2.2.4,3.8,1.1,4.9,2s1.5,2.3,1.5,4c0,1.9-.7,3.4-2.2,4.6-1.4,1.2-3.5,1.8-6.1,1.8s-4.7-.7-6.3-2c-1.4-1.2-2.2-2.8-2.2-4.9Z"/>
        <path id="path2781" class="cls-1" d="M191.6,241.5h3.3c0,1.1.5,2,1.5,2.8s2.3,1.2,3.8,1.2c1.7,0,3-.3,3.8-.9s1.2-1.4,1.2-2.4c0-1.6-1.3-2.6-3.8-3.1l-4.2-.8c-1.7-.3-3-1-3.9-2s-1.3-2.3-1.3-3.8c0-1.8.7-3.4,2.1-4.6s3.3-1.8,5.7-1.8c2.6,0,4.7.7,6.1,2s2.2,3,2.2,5h-3.3c0-1.1-.5-2-1.4-2.8s-2.1-1.2-3.6-1.2c-1.4,0-2.5.3-3.3,1s-1.2,1.4-1.2,2.3c0,1.5,1.1,2.5,3.3,3l3.4.6c2.2.4,3.8,1.1,4.9,2s1.5,2.3,1.5,4c0,1.9-.7,3.4-2.2,4.6-1.4,1.2-3.5,1.8-6.1,1.8s-4.7-.7-6.3-2c-1.4-1.2-2.2-2.8-2.2-4.9Z"/>
        <path id="path2782" class="cls-1" d="M238.1,240.8h3.4c-.2.9-.6,1.8-1,2.7-.5.9-1.1,1.7-1.9,2.5s-1.8,1.4-3,1.9-2.5.7-3.9.7c-2.9,0-5.4-1.1-7.4-3.2s-3-4.8-3-8.1,1-6,3-8.1,4.5-3.2,7.4-3.2c2.6,0,4.7.7,6.5,2.2,1.7,1.5,2.9,3.3,3.4,5.4h-3.4c-.5-1.5-1.4-2.6-2.5-3.4s-2.4-1.2-3.9-1.2c-2.1,0-3.8.7-5.2,2.2-1.4,1.5-2,3.4-2,5.9s.7,4.4,2,5.9c1.4,1.5,3.1,2.2,5.2,2.2,1.7,0,3-.5,4.1-1.4,1.1-.6,1.8-1.7,2.2-3Z"/>
        <path id="path2783" class="cls-1" d="M246.3,248.3v-21.9h3.3v18.8h10.6v3.1h-13.9Z"/>
        <path id="path2784" class="cls-1" d="M263.1,239.5v-13.1h3.3v13.1c0,1.8.5,3.2,1.5,4.3,1,1.1,2.3,1.6,3.9,1.6s2.9-.5,3.9-1.6,1.5-2.5,1.5-4.3v-13.1h3.3v13.1c0,2.7-.8,4.9-2.4,6.6s-3.7,2.5-6.3,2.5-4.7-.8-6.3-2.5c-1.6-1.7-2.4-3.9-2.4-6.6Z"/>
        <path id="path2785" class="cls-1" d="M286.5,248.3v-21.9h9.7c1.8,0,3.3.6,4.5,1.8,1.2,1.2,1.8,2.6,1.8,4.3,0,1.4-.4,2.6-1.2,3.6-.3.4-.7.8-1.2,1.1v.2c.5.3.9.7,1.3,1.1.9,1.1,1.3,2.3,1.3,3.7,0,1.7-.6,3.2-1.8,4.3-1.2,1.2-2.6,1.8-4.4,1.8h-10ZM289.8,235.9h6.3c.9,0,1.6-.3,2.2-.9s.9-1.4.9-2.3-.3-1.7-.9-2.3c-.6-.6-1.3-.9-2.2-.9h-6.3v6.4ZM289.8,245.3h6.6c.9,0,1.6-.3,2.2-.9s.9-1.4.9-2.3-.3-1.7-.9-2.3c-.6-.6-1.3-.9-2.2-.9h-6.6v6.4Z"/>
      </g>
      <path id="path2786" class="cls-1" d="M199.1,32.7c-2.8,3-4.9,7.1-5.8,11.9h-45.6c-.9-4.8-3-8.9-5.8-11.9L170.5,0l28.6,32.7ZM237.4,89.2H103.7l-11.2-66.9,25.6,14.6c-2.1,3.7-3.3,8.3-3.3,13.3,0,12.3,7.5,22.3,16.7,22.3,7.8,0,14.3-7.1,16.2-16.7h45.6c1.9,9.6,8.4,16.7,16.2,16.7,9.2,0,16.7-10,16.7-22.3,0-5-1.2-9.5-3.3-13.3l25.6-14.6-11.1,66.9Z"/>
      <path id="path2787" class="cls-1" d="M155.4,147.8c-9.5,0-17.6,7-17.6,19.4s8.5,19.4,18,19.4c9.4-.3,17.1-7.2,17.1-19.4.1-12.4-8-19.4-17.5-19.4M212.9,172.9c.2.6.3,1.2.5,1.8.2-.8.5-1.5.7-2.3h0l10.8-33-1.5-4.7h16.1l12.9,37.9.3,1c.2.5.3.9.4,1.4l11.5-40.3h14.8l-19.3,64.5h-12.9l-14-41.9-13.9,41.9h-12.9l-19.2-64.5h14.8l10.9,38.2ZM326.6,178.2v-43.5h14.3v64.9h-17.2l-26.2-43.5v43.5h-14.3v-64.9h17.2l26.2,43.5ZM94.1,134.6c13.9,0,25.1,10,25.1,22.3,0,8-6.2,17.1-16.8,18.9l18.6,23.7h-17.6l-22.6-33h13.3c5.9,0,10.7-4.3,10.7-9.6s-4.8-9.6-10.7-9.6h-13.3v52.2h-14.3v-64.9h27.6ZM155.4,133.7c19.4,0,33.3,15.9,33.3,33.4s-13.5,32.9-32.4,33.4h-.9c-19.4,0-33.3-15.9-33.3-33.4s13.9-33.4,33.3-33.4M33.4,133.7c12.3,0,22.4,6.4,28.1,15.5l-13.9,5.9c-3.2-4.8-8.4-7.3-14.2-7.3-9.5,0-17.6,7-17.6,19.4s8.5,19.4,18,19.4c5.6-.2,10.6-2.7,13.7-7.3l13.9,5.9c-5.6,8.9-15.4,15.2-27.2,15.5h-.9c-19.4,0-33.3-15.9-33.3-33.4s14-33.6,33.4-33.6"/>
    </g>
  </g>
</svg>